<svg width="26" height="26" viewBox="0 0 26 26" fill="none" xmlns="http://www.w3.org/2000/svg">
<path fill-rule="evenodd" clip-rule="evenodd" d="M1.59754 0.460797L1.47073 0.447146C1.00925 0.429782 0.594829 0.765689 0.513887 1.24705L0.500625 1.37758C0.483755 1.85257 0.810104 2.27913 1.27777 2.36244L3.16403 2.69823L4.30719 16.7168L4.33085 16.9275C4.56085 18.526 5.89666 19.7278 7.48765 19.7278H21.1277L21.3331 19.7211C22.8285 19.6228 24.0684 18.4588 24.2867 16.9125L25.473 8.47436L25.4935 8.28053C25.6026 6.73779 24.4153 5.39883 22.8864 5.39883H5.26528L4.97187 1.79409L4.94975 1.65146C4.8642 1.2805 4.57122 0.990547 4.19754 0.923976L1.59754 0.460797ZM7.34255 17.7898C6.72346 17.72 6.22836 17.2083 6.17548 16.5559L5.4226 7.32874H22.8862L22.9964 7.33708C23.3911 7.39748 23.6762 7.77738 23.6171 8.19804L22.4309 16.6356L22.4011 16.7864C22.2507 17.3764 21.7314 17.7979 21.1275 17.7979H7.48747L7.34255 17.7898ZM5.38557 23.7154C5.38557 22.6397 6.23267 21.7662 7.27807 21.7662C8.32334 21.7662 9.17182 22.6395 9.17182 23.7154C9.17182 24.7914 8.3232 25.6633 7.27807 25.6633C6.23281 25.6633 5.38557 24.7913 5.38557 23.7154ZM19.45 23.7154C19.45 22.6395 20.2984 21.7662 21.3437 21.7662C22.389 21.7662 23.2375 22.6395 23.2375 23.7154C23.2375 24.7914 22.3888 25.6633 21.3437 25.6633C20.2986 25.6633 19.45 24.7914 19.45 23.7154ZM20.0606 11.1191C20.0606 10.5862 19.6409 10.1541 19.1231 10.1541H15.6569L15.5297 10.1629C15.0721 10.2268 14.7194 10.6306 14.7194 11.1191C14.7194 11.652 15.1391 12.0841 15.6569 12.0841H19.1231L19.2503 12.0752C19.7079 12.0113 20.0606 11.6076 20.0606 11.1191Z" fill="#333333"/>
</svg>
