<svg width="30" height="32" viewBox="0 0 30 32" fill="none" xmlns="http://www.w3.org/2000/svg">
<path fill-rule="evenodd" clip-rule="evenodd" d="M12.3461 2.71535C8.65923 2.71535 5.69865 5.76218 5.69865 9.55754C5.69865 13.352 8.65963 16.3997 12.3461 16.3997C16.0335 16.3997 18.9936 13.3524 18.9936 9.55754C18.9936 5.76177 16.0339 2.71535 12.3461 2.71535ZM12.3461 4.64526C14.9984 4.64526 17.1186 6.82763 17.1186 9.55754C17.1186 12.2866 14.9979 14.4698 12.3461 14.4698C9.69517 14.4698 7.57365 12.2862 7.57365 9.55754C7.57365 6.82811 9.6947 4.64526 12.3461 4.64526ZM12.3462 18.7418C6.05874 18.7418 2.5 19.9698 2.5 23.4495C2.5 26.933 6.07453 28.1842 12.3462 28.1842L13.1506 28.1771C18.935 28.0731 22.1925 26.804 22.1925 23.4765C22.1925 20.0687 18.7717 18.7972 12.7514 18.7435L12.3462 18.7418ZM12.3462 20.6717C17.5981 20.6717 20.3175 21.6236 20.3175 23.4765C20.3175 25.3179 17.6047 26.2543 12.3462 26.2543C7.09442 26.2543 4.375 25.3024 4.375 23.4495C4.375 21.6571 6.9417 20.7229 11.9254 20.6737L12.3462 20.6717ZM24.0045 10.3311C24.4791 10.3311 24.8713 10.6941 24.9334 11.1651L24.942 11.296V12.9106H26.5621C27.0799 12.9106 27.4996 13.3426 27.4996 13.8755C27.4996 14.3641 27.1469 14.7678 26.6894 14.8317L26.5621 14.8405H24.942V16.4553C24.942 16.9883 24.5222 17.4203 24.0045 17.4203C23.5299 17.4203 23.1376 17.0573 23.0755 16.5863L23.067 16.4553V14.8405H21.4496C20.9319 14.8405 20.5121 14.4085 20.5121 13.8755C20.5121 13.387 20.8648 12.9833 21.3224 12.9194L21.4496 12.9106H23.067V11.296C23.067 10.7631 23.4867 10.3311 24.0045 10.3311Z" fill="#3FCF5E"/>
</svg>
